<svg width="64" height="44" viewBox="0 0 64 44" fill="none" xmlns="http://www.w3.org/2000/svg">
<path d="M44.9918 14.2617H17.4749C16.8979 14.2617 16.4288 14.7325 16.4791 15.2855C17.0821 21.8704 23.4574 27.052 31.2324 27.052C39.0074 27.052 45.3827 21.8704 45.9857 15.2855C46.0379 14.7325 45.5688 14.2617 44.9918 14.2617Z" fill="#FF6633"/>
<path d="M26.2655 4.40841C25.9584 4.40841 25.6531 4.27596 25.4539 4.0218C24.4488 2.75101 22.539 1.95989 20.471 1.95989C18.403 1.95989 16.4932 2.74922 15.4881 4.0218C15.1474 4.45316 14.5071 4.53549 14.0604 4.20795C13.6118 3.88041 13.5262 3.2647 13.8668 2.83513C15.2703 1.05959 17.7385 0 20.471 0C23.2035 0 25.6717 1.05959 27.0771 2.83513C27.4177 3.26648 27.3302 3.88041 26.8835 4.20795C26.6973 4.34398 26.4814 4.40841 26.2655 4.40841Z" fill="#414141"/>
<path d="M47.7878 4.40841C47.4807 4.40841 47.1754 4.27596 46.9762 4.0218C45.9711 2.75101 44.0613 1.95989 41.9933 1.95989C39.9253 1.95989 38.0155 2.74922 37.0104 4.0218C36.6697 4.45316 36.0294 4.53549 35.5827 4.20795C35.1341 3.88041 35.0485 3.2647 35.3891 2.83513C36.7926 1.05959 39.2608 0 41.9933 0C44.7258 0 47.194 1.05959 48.5994 2.83513C48.94 3.26648 48.8525 3.88041 48.4058 4.20795C48.2196 4.34398 48.0037 4.40841 47.7878 4.40841Z" fill="#414141"/>
<path d="M2.85197 30.0031L2.45178 31.0216C2.41641 31.1057 2.28797 31.1397 2.16885 31.0985C1.89708 31.0198 1.61601 30.8784 1.32192 30.6707C1.02968 30.4667 0.798866 30.2501 0.627619 30.0228C0.368886 29.6774 0.188332 29.3015 0.087817 28.9006C-0.00897503 28.4961 -0.0238661 28.1059 0.0338368 27.7229C0.0952625 27.3434 0.236728 26.9765 0.456371 26.6257C0.677876 26.2749 0.962668 25.976 1.32005 25.729C1.67558 25.482 2.06089 25.3137 2.47597 25.2224C2.89106 25.1311 3.29871 25.1168 3.69332 25.1813C4.09352 25.2457 4.47324 25.3835 4.83807 25.6001C5.20663 25.8149 5.5212 26.0977 5.77993 26.4431C5.9456 26.6651 6.0852 26.9461 6.19316 27.2808C6.30484 27.6155 6.36068 27.9287 6.35882 28.2222C6.36068 28.3404 6.2732 28.4298 6.17641 28.4334L5.04841 28.4639C4.94045 28.4639 4.8511 28.3672 4.8511 28.2294C4.85482 28.0629 4.83249 27.8947 4.77851 27.7193C4.72453 27.5439 4.65566 27.3989 4.57003 27.2843C4.29269 26.9156 3.92413 26.6919 3.46251 26.6203C3.00461 26.5469 2.58766 26.6436 2.20421 26.9085C1.82449 27.1716 1.5974 27.5224 1.52667 27.9645C1.45966 28.403 1.5639 28.8111 1.84124 29.1798C1.92687 29.2943 2.04413 29.4017 2.19677 29.502C2.35126 29.604 2.50203 29.681 2.65653 29.7293C2.8073 29.7758 2.89106 29.8957 2.85197 30.0031Z" fill="#414141"/>
<path d="M7.35468 28.8361C7.44775 28.7377 7.56688 28.7341 7.6674 28.8236L10.5637 31.3831C10.6661 31.4726 10.6698 31.5872 10.5767 31.6838L9.92526 32.364C9.8266 32.4678 9.7205 32.4713 9.61254 32.3765L7.65809 30.6493L6.9731 31.3652L8.45662 32.6772C8.56831 32.7756 8.57947 32.8938 8.47896 32.9976L7.94102 33.5596C7.84795 33.658 7.72324 33.6562 7.61342 33.5596L6.12989 32.2476L5.42629 32.985L7.38074 34.7122C7.51849 34.834 7.52965 34.9915 7.41239 35.1114L6.80185 35.7504C6.71064 35.8452 6.58965 35.847 6.48914 35.7575L3.53326 33.1479C3.43088 33.0584 3.42344 32.9474 3.51651 32.849L7.35468 28.8361Z" fill="#414141"/>
<path d="M13.6203 37.2574C13.6128 37.542 13.5291 37.8087 13.3671 38.0575C13.06 38.5318 12.6617 38.8038 12.1721 38.8754C11.6863 38.9488 11.1558 38.8164 10.5844 38.4727L8.57221 37.2664C8.47914 37.2109 8.46239 37.1393 8.51823 37.0534L11.5821 32.3282C11.6379 32.2422 11.7124 32.2261 11.8036 32.2816L13.6668 33.3985C14.2122 33.726 14.5528 34.1055 14.6906 34.5386C14.8283 34.9718 14.7501 35.4174 14.456 35.8721C14.2197 36.2372 13.8064 36.477 13.3913 36.4896C13.5514 36.7187 13.6277 36.9728 13.6203 37.2574ZM11.2861 37.3559C11.6156 37.5545 11.9543 37.4811 12.1554 37.1715C12.3527 36.8672 12.2652 36.554 11.9339 36.3571L11.0888 35.8506L10.441 36.8493L11.2861 37.3559ZM12.2373 34.0822L11.69 34.9252L12.388 35.3441C12.6691 35.5123 12.9483 35.4532 13.1158 35.1937C13.2834 34.9342 13.2145 34.6693 12.9334 34.501L12.2373 34.0822Z" fill="#414141"/>
<path d="M16.4648 35.1866C16.5169 35.0631 16.6249 35.0184 16.7533 35.0685L20.4035 36.4771C20.5319 36.5272 20.5784 36.6311 20.5263 36.7546L20.1689 37.6119C20.115 37.7425 20.0163 37.7819 19.8804 37.73L17.4159 36.7796L17.0399 37.6817L18.9106 38.403C19.0502 38.4567 19.1042 38.5641 19.0502 38.6948L18.7543 39.4035C18.7022 39.527 18.5868 39.5682 18.4472 39.5145L16.5765 38.7932L16.1893 39.7221L18.6538 40.6725C18.8287 40.7406 18.8957 40.882 18.8306 41.0359L18.4937 41.8413C18.4434 41.9612 18.3317 42.0042 18.2033 41.9541L14.4787 40.5168C14.3502 40.4667 14.3018 40.3665 14.354 40.243L16.4648 35.1866Z" fill="#414141"/>
<path d="M23.9773 37.3449C24.6139 37.4792 25.0885 37.7691 25.4012 38.2184C25.714 38.6641 25.8052 39.1885 25.6656 39.7935C25.5297 40.3913 25.2188 40.828 24.7404 41.1054C24.2621 41.3793 23.7074 41.4509 23.0689 41.3166L22.3541 41.1663L21.9968 42.7288C21.967 42.8577 21.8683 42.9203 21.725 42.8899L20.6789 42.6698C20.5449 42.6411 20.4853 42.5463 20.5132 42.4174L21.7287 37.0961C21.7566 36.9744 21.8627 36.9028 21.9893 36.9297L22.5161 37.0407L23.0466 37.1534L23.9773 37.3449ZM23.3035 40.01C23.5119 40.0548 23.7018 40.0244 23.8675 39.9241C24.0368 39.8239 24.1429 39.6735 24.1895 39.4731C24.236 39.2726 24.2044 39.0936 24.0945 38.9343C23.9903 38.7715 23.8302 38.6676 23.6218 38.6247L22.9684 38.4869L22.652 39.874L23.3035 40.01Z" fill="#414141"/>
<path d="M31.2777 38.1312C31.408 38.1383 31.4899 38.2314 31.4825 38.3549L31.1698 43.7996C31.1623 43.9321 31.0786 44.009 30.9408 44.0001L29.8724 43.9428C29.7253 43.9356 29.6472 43.8497 29.6546 43.7173L29.7477 42.0957L29.126 42.0635L28.1376 43.6708C28.0501 43.8068 27.9942 43.8444 27.8733 43.8372L26.6243 43.771C26.4902 43.7638 26.4232 43.6314 26.4958 43.5186L27.6741 41.6679C27.0971 41.2956 26.7843 40.671 26.8272 39.9353C26.8625 39.3214 27.0915 38.8382 27.5177 38.4891C27.944 38.1365 28.4857 37.9808 29.1371 38.0148L31.0041 38.1133L31.2777 38.1312ZM29.8203 40.8392L29.904 39.3769L29.1241 39.3357C28.9063 39.325 28.7239 39.3823 28.5787 39.5076C28.4335 39.6328 28.3535 39.7975 28.3405 40.0069C28.3293 40.2163 28.3889 40.3953 28.5192 40.551C28.6532 40.7032 28.8281 40.7855 29.0403 40.7962L29.8203 40.8392Z" fill="#414141"/>
<path d="M37.8854 37.5528C37.9897 37.5402 38.0492 37.5868 38.0622 37.6906L38.751 43.2177C38.764 43.3215 38.7156 43.3788 38.6132 43.3913L37.4387 43.5273C37.3344 43.5398 37.2749 43.4933 37.2619 43.3895L36.9882 41.1933L34.7173 41.4547L34.991 43.6508C35.004 43.7546 34.9556 43.8119 34.8532 43.8244L33.6824 43.9587C33.5744 43.9712 33.5149 43.9247 33.5019 43.8209L32.8131 38.2938C32.8001 38.19 32.8485 38.1327 32.9565 38.1202L34.1273 37.9859C34.2315 37.9734 34.2911 38.0199 34.3041 38.1237L34.5554 40.1409L36.8263 39.8796L36.575 37.8624C36.562 37.7586 36.6104 37.7013 36.7127 37.6888L37.8854 37.5528Z" fill="#414141"/>
<path d="M39.7981 38.9775C39.8316 38.564 39.9396 38.1864 40.1182 37.8463C40.3007 37.5045 40.5519 37.1966 40.874 36.9281C41.1941 36.6561 41.5608 36.4556 41.9778 36.3232C42.3947 36.1907 42.8135 36.1424 43.2361 36.1782C43.6605 36.2086 44.0532 36.3124 44.4069 36.4842C44.7643 36.6543 45.0863 36.8959 45.3655 37.2091C45.6484 37.517 45.8569 37.8696 45.9946 38.2705C46.1771 38.8021 46.2106 39.3337 46.097 39.8599C45.9835 40.3879 45.7434 40.8533 45.3655 41.2578C44.9932 41.6605 44.5279 41.9469 43.9713 42.1241C43.5544 42.2565 43.1356 42.3048 42.7112 42.2744C42.2849 42.2404 41.8921 42.1366 41.5348 41.9666C41.1811 41.7947 40.8609 41.5549 40.5799 41.2488C40.3025 40.9392 40.0922 40.5866 39.9563 40.1892C39.8167 39.7883 39.7664 39.3856 39.7981 38.9775ZM42.2179 40.66C42.6255 40.8568 43.0518 40.8819 43.4967 40.7405C43.9378 40.6009 44.2598 40.336 44.4664 39.9458C44.6712 39.5538 44.7047 39.1511 44.5577 38.7269C44.4106 38.2991 44.1333 37.9895 43.7256 37.7926C43.318 37.5957 42.8936 37.5653 42.4543 37.7049C42.0131 37.8445 41.6874 38.113 41.4826 38.505C41.2779 38.897 41.2462 39.305 41.3933 39.731C41.5385 40.157 41.8121 40.4631 42.2179 40.66Z" fill="#414141"/>
<path d="M49.9473 32.774C50.0478 32.7185 50.1725 32.7561 50.2377 32.8635L53.067 37.5816C53.1284 37.6818 53.0949 37.8124 52.9888 37.8697L52.0506 38.3888C51.9464 38.4478 51.818 38.4103 51.7565 38.31L50.8017 36.7188C50.6844 37.1037 50.3977 37.4706 49.9938 37.6961C49.3702 38.0415 48.7485 38.131 48.1306 37.9682C47.5107 37.8017 47.01 37.4026 46.6303 36.769L45.7722 35.3371C45.7108 35.2368 45.7387 35.1044 45.8373 35.0507L46.768 34.5352C46.8834 34.4708 47.0193 34.503 47.0826 34.6104L47.9388 36.0387C48.2664 36.5846 48.7969 36.7224 49.3665 36.4074C49.6532 36.2481 49.8281 36.0441 49.9045 35.7935C49.9808 35.5429 49.9417 35.2852 49.7853 35.0238L48.9254 33.5884C48.8639 33.4882 48.8956 33.3539 48.998 33.2984L49.9473 32.774Z" fill="#414141"/>
<path d="M59.2313 32.6002C59.3746 32.6342 59.4435 32.7631 59.3356 32.8562L58.3006 33.7457C58.2355 33.8012 58.1573 33.8263 58.0735 33.8155L55.3876 33.1461L54.7454 33.6974L56.2308 35.2957C56.3034 35.3745 56.2996 35.4479 56.2215 35.5141L55.3336 36.2784C55.2517 36.3482 55.1754 36.3446 55.1028 36.2658L51.2497 32.1187C51.1808 32.0436 51.1845 31.9702 51.2646 31.9004L52.1525 31.1361C52.2306 31.0699 52.307 31.0735 52.3777 31.1486L53.7923 32.6718L54.2949 32.2404L54.0585 29.6989C54.0436 29.5449 54.092 29.4823 54.2019 29.3874L55.2275 28.5068C55.3429 28.4084 55.4695 28.4835 55.4825 28.6428L55.7598 31.7482L59.2313 32.6002Z" fill="#414141"/>
<path d="M63.8454 26.6721C63.9888 26.7062 64.0465 26.8082 63.9534 26.937L63.2703 27.8713C63.2033 27.9626 63.0748 28.0002 62.952 27.9716L62.1367 27.7443L60.9175 29.4106L61.4145 30.0657C61.4908 30.157 61.4964 30.2894 61.4219 30.3897L60.7406 31.3204C60.6513 31.4421 60.534 31.4367 60.4447 31.3114L57.096 26.4216C57.0216 26.307 57.0253 26.1764 57.0923 26.0851L57.6005 25.3906C57.6675 25.2993 57.8015 25.2564 57.9262 25.2868L63.8454 26.6721ZM60.1301 28.3761L60.856 27.3827L58.9779 26.8547L60.1301 28.3761Z" fill="#414141"/>
</svg>
