<svg width="49" height="40" viewBox="0 0 49 40" fill="none" xmlns="http://www.w3.org/2000/svg">
<path d="M5.36638 21.1575H43.6862C44.4897 21.1575 45.143 21.843 45.073 22.6484C44.2331 32.2381 35.355 39.7841 24.5276 39.7841C13.7002 39.7841 4.82203 32.2381 3.98217 22.6484C3.90959 21.843 4.56281 21.1575 5.36638 21.1575Z" fill="#FF6633"/>
<path d="M31.4435 6.80838C31.8712 6.80838 32.2963 6.6155 32.5737 6.24536C33.9734 4.39469 36.633 3.24258 39.5128 3.24258C42.3927 3.24258 45.0523 4.39208 46.452 6.24536C46.9264 6.87355 47.8181 6.99345 48.4402 6.51645C49.0649 6.03944 49.1842 5.14278 48.7098 4.5172C46.7553 1.93146 43.3181 0.388367 39.5128 0.388367C35.7076 0.388367 32.2704 1.93146 30.3133 4.5172C29.8389 5.14538 29.9608 6.03944 30.5829 6.51645C30.8421 6.71455 31.1428 6.80838 31.4435 6.80838Z" fill="#414141"/>
<path d="M1.47472 6.80838C1.90242 6.80838 2.32754 6.6155 2.6049 6.24536C4.00466 4.39469 6.66421 3.24258 9.54409 3.24258C12.424 3.24258 15.0835 4.39208 16.4833 6.24536C16.9577 6.87355 17.8494 6.99345 18.4715 6.51645C19.0962 6.03944 19.2154 5.14278 18.7411 4.5172C16.7866 1.93146 13.3494 0.388367 9.54409 0.388367C5.73881 0.388367 2.30162 1.93146 0.344543 4.5172C-0.129822 5.14538 -0.00798798 6.03944 0.614128 6.51645C0.873344 6.71455 1.17403 6.80838 1.47472 6.80838Z" fill="#414141"/>
</svg>
